<?xml version="1.0" encoding="UTF-8"?>
<svg xmlns="http://www.w3.org/2000/svg" xmlns:xlink="http://www.w3.org/1999/xlink" version="1.1" id="Capa_1" x="0px" y="0px" width="169px" height="40px" viewBox="0 0 169 40" xml:space="preserve">
<path fill="#FFFFFF" d="M10.015,2.5V40H0V2.5H10.015z"></path>
<path fill="#FFFFFF" d="M15.022,2.5h21.282c6.914,0,12.519,5.597,12.519,12.5c0,6.904-5.605,12.5-12.519,12.5H25.037V40H15.022V2.5z   M25.037,17.5h11.267c1.383,0,2.504-1.119,2.504-2.5s-1.121-2.5-2.504-2.5H25.037V17.5z"></path>
<path fill="#FFFFFF" d="M86.378,2.5v19.375c0,4.487,3.644,8.125,8.137,8.125c4.494,0,8.138-3.638,8.138-8.125V2.5h10.015v19.375  c0,10.01-8.127,18.125-18.152,18.125c-10.025,0-18.152-8.115-18.152-18.125V2.5H86.378z"></path>
<path fill="#FFFFFF" d="M52.578,20c0-9.665,7.847-17.5,17.526-17.5h2.504v10h-2.504c-4.148,0-7.511,3.358-7.511,7.5v1.25  c0,10.355-8.407,18.75-18.778,18.75h-1.252V30h1.252c4.839,0,8.763-3.918,8.763-8.75V20z"></path>
<path fill="#FFFFFF" d="M169,3.75c0,2.071-1.682,3.75-3.756,3.75s-3.756-1.679-3.756-3.75S163.17,0,165.244,0S169,1.679,169,3.75z"></path>
<path fill="#FFFFFF" d="M123.42,40l4.779-19.982l3.553,12.021c2.118,7.17,12.289,7.17,14.408,0l3.552-12.021L154.491,40h10.296  l-7.514-31.42c-1.787-7.472-12.332-7.749-14.51-0.381l-3.808,12.885l-3.808-12.885c-2.178-7.368-12.724-7.091-14.51,0.381  L113.124,40H123.42z"></path>
</svg>
